<svg enable-background="new 0 0 64 64" height="512" viewBox="0 0 64 64" width="512" xmlns="http://www.w3.org/2000/svg"><path d="m15.5 32.5s3 2 3-3 0-6 0-9 0-15 13-15 16 7 16 14-.028 17.308-9 15.578c-3-.578-2-.945 0-1.762v-3.816h-11.75s.75 6-5.25 6-6-3-6-3z" fill="#ffe885"/><path d="m31.5 7.5c12.78 0 15.893 6.765 15.995 13.644.004-.562.005-1.113.005-1.644 0-7-3-14-16-14s-13 12-13 15v2c0-3 0-15 13-15z" fill="#fffa96"/><path d="m42.5 13.5s1.827-2.642-3.084-6.82c-.033-.012-.068-.022-.1-.033l-.83-.266c-1.925-.563-4.228-.881-6.986-.881-.885 0-1.705.06-2.474.165.277-.003 8.558-.031 13.474 7.835z" fill="#96aaf0"/><path d="m30.18 5.547c-.397.028-.782.067-1.154.118.186-.002 3.964-.003 7.915 2.353 2.185.447 3.96 1.166 5.37 2.102-.479-.973-1.356-2.131-2.895-3.44-.033-.012-.068-.022-.1-.033l-.83-.266c-.931-.273-1.956-.484-3.073-.634-.066-.009-.132-.018-.198-.026-.523-.066-1.067-.117-1.632-.153-.088-.006-.178-.009-.267-.014-.585-.033-1.185-.054-1.816-.054-.44 0-.864.015-1.273.043-.016.001-.031.003-.047.004z" fill="#a2baff"/><path d="m38.5 33.078v.238c-2 .817-3 1.183 0 1.762 8.972 1.73 9-8.578 9-15.578 0-.119-.003-.237-.005-.356-.051 6.851-.703 15.533-8.995 13.934z" fill="#f0dc78"/><path d="m25.732 31.681c-.756 1.016-2.041 1.819-4.232 1.819-1.948 0-3.256-.318-4.145-.745-.847.41-1.855-.255-1.855-.255s0 3 6 3c2.191 0 3.476-.803 4.232-1.819z" fill="#f0dc78"/><path d="m21.5 36c-6.426 0-6.5-3.357-6.5-3.5 0-.185.102-.354.264-.44.162-.088.36-.078.513.024.006.004.826.521 1.393.213.535-.29.83-1.283.83-2.797v-9c0-12.811 7.341-15.5 13.5-15.5 10.949 0 16.5 4.879 16.5 14.5 0 5.06 0 11.988-3.531 14.904-1.52 1.255-3.559 1.647-6.064 1.165-.271-.053-.449-.314-.396-.586.052-.271.314-.445.585-.396 2.226.43 3.94.118 5.238-.954 3.168-2.615 3.168-9.273 3.168-14.133 0-9.084-5.07-13.5-15.5-13.5-8.294 0-12.5 4.879-12.5 14.5v9c0 1.958-.458 3.196-1.361 3.68-.437.233-.896.245-1.293.178.524.723 1.841 1.642 5.154 1.642 1.612 0 2.837-.462 3.641-1.373 1.404-1.59 1.116-4.04 1.113-4.064-.018-.143.026-.286.121-.394.095-.107.231-.169.375-.169h11.75c.276 0 .5.224.5.5s-.224.5-.5.5h-11.22c.016.939-.126 2.858-1.389 4.289-1.003 1.136-2.48 1.711-4.391 1.711z" fill="#785ae6"/><path d="m38.5 28.5v9.254h.001c14.999 3.876 15.999 6.895 15.999 13.746v11h-37s0-5.505 0-9.818c0-7.182-.055-11.182 11.945-14.182v-4z" fill="#ffb4be"/><path d="m17.5 60.5v2h37s0-.611 0-2z" fill="#f0a0aa"/><path d="m21.5 62.5c0-1.398-.978-3.285-1.566-4.978l.064.103c-.556.111-1.505.221-2.498-.018v-.085c0-1.557 0-3.277 0-4.84 0-6.204-.041-10.034 7.681-12.895l.319 1.713s2 2 12 0l5.689-2.665c10.53 3.351 11.311 6.611 11.311 12.665v5.461c-6.506 1.369-9 .533-9 .533v.006 5z" fill="#f0f0e6"/><g fill="#dcdcd2"><path d="m21.07 60.5c.249.719.43 1.405.43 2h24v-2z"/><path d="m48.014 58.247c-1.806 0-2.614-.258-2.673-.278-.262-.087-.403-.371-.315-.633.088-.261.369-.403.63-.315.041.013 2.528.758 8.741-.548.269-.062.536.115.592.387.057.27-.116.535-.386.592-2.957.621-5.108.795-6.589.795z"/><path d="m45.5 63c-.276 0-.5-.224-.5-.5v-10.011c0-.276.224-.5.5-.5s.5.224.5.5v10.011c0 .276-.224.5-.5.5z"/><path d="m21.5 63c-.276 0-.5-.224-.5-.5 0-.903-.49-2.129-.964-3.314-.51-1.273-1.036-2.589-1.036-3.686 0-2.072 1.953-6.978 2.036-7.186.103-.256.396-.381.65-.278.256.103.381.394.279.649-.02.049-1.965 4.934-1.965 6.815 0 .903.49 2.129.964 3.314.51 1.273 1.036 2.589 1.036 3.686 0 .276-.224.5-.5.5z"/><path d="m18.75 58.251c-.427 0-.891-.043-1.368-.157-.269-.064-.434-.335-.369-.604s.337-.425.604-.369c.929.225 1.829.104 2.283.014.27-.059.534.121.588.392s-.121.534-.392.589c-.359.072-.824.135-1.346.135z"/></g><path d="m26.5 55.5c-4-3-5-9-5-9l4 3 5 6z" fill="#bee6ff"/><path d="m39.5 48.5s-5 5-9 7h-4l5-5z" fill="#bee6ff"/><path d="m30.5 56h-4c-.202 0-.385-.122-.462-.309-.078-.187-.035-.402.108-.545l5-5c.064-.064.145-.109.232-.132l8-2c.217-.053.445.044.556.239s.078.44-.082.6c-.207.206-5.104 5.08-9.13 7.094-.068.034-.144.053-.222.053zm-2.793-1h2.674c2.608-1.333 5.667-3.968 7.395-5.554l-6.02 1.505z" fill="#82aadc"/><path d="m26.5 55.5h4v3h-4z" fill="#bee6ff"/><path d="m26.5 58.5c-1 1-1.018 4-1.018 4h6.018s0-3-1-4z" fill="#bee6ff"/><path d="m25.679 60.5c-.19 1.024-.197 2-.197 2h6.018s-.001-.976-.186-2z" fill="#96bef0"/><path d="m26.5 56c-.105 0-.21-.033-.3-.1-4.113-3.085-5.151-9.065-5.193-9.318-.034-.201.059-.403.233-.51.175-.104.396-.095.56.027l4 3c.031.023.06.051.084.08l3.182 3.818c.166.199.152.491-.031.674l-2.182 2.182c-.096.097-.225.147-.353.147zm-4.195-8.271c.507 1.807 1.709 5.066 4.156 7.104l1.544-1.544-2.852-3.423z" fill="#82aadc"/><path d="m30.5 59h-4c-.276 0-.5-.224-.5-.5v-3c0-.276.224-.5.5-.5h4c.276 0 .5.224.5.5v3c0 .276-.224.5-.5.5zm-3.5-1h3v-2h-3z" fill="#82aadc"/><path d="m31.5 63h-6.018c-.133 0-.261-.053-.354-.147s-.146-.223-.146-.355c.002-.328.051-3.237 1.164-4.351.094-.094.221-.147.354-.147h4c.133 0 .26.053.354.146 1.114 1.115 1.146 4.026 1.146 4.354 0 .276-.224.5-.5.5zm-5.5-1h4.985c-.054-1.013-.268-2.373-.716-3h-3.539c-.45.627-.669 1.987-.73 3z" fill="#82aadc"/><path d="m25.5 41.5s2 2 12 0l-9 12-3-6z" fill="#f0f0e6"/><path d="m54.5 63h-37c-.276 0-.5-.224-.5-.5v-9.817c0-7.188 0-11.497 11.944-14.571v-3.612c0-.276.224-.5.5-.5s.5.224.5.5v4c0 .229-.156.43-.379.485-11.565 2.892-11.565 6.47-11.565 13.599v9.416h36v-10.5c0-6.402-.664-9.65-15.625-13.516-.221-.057-.375-.256-.375-.484v-2.76c0-.276.224-.5.5-.5s.5.224.5.5v2.373c14.543 3.808 16 7.162 16 14.387v11c0 .276-.224.5-.5.5z" fill="#785ae6"/><path d="m28.5 53.5s-4-10-1-16c0 0-6 1-10 6 0 0 1 4 11 10z" fill="#8d7bd4"/><path d="m26.542 40.724c.164-1.141.465-2.237.958-3.224 0 0-6 1-10 6 0 0 .176.666 1.036 1.845 2.88-2.932 6.357-4.173 8.006-4.621z" fill="#968cd2"/><path d="m27.582 50.71c-.105-.372-.212-.769-.317-1.192-4.275-1.857-6.783-6.042-7.783-8.06-.261.226-.518.464-.772.715 1.191 2.35 4.013 6.785 8.872 8.537z" fill="#f0f0e6"/><path d="m19.482 41.458c-.261.226-.518.464-.772.715.285.563.667 1.247 1.145 1.984.27-.22.541-.433.813-.628-.51-.79-.911-1.516-1.186-2.071z" fill="#fffffa"/><path d="m28.5 53.5s7-14 12-17c0 0 7 2 12 6 0 0-8 6-24 11z" fill="#8d7bd4"/><path d="m38.5 38.5s6.557 1.881 11.512 5.63c1.651-1.006 2.488-1.63 2.488-1.63-5-4-12-6-12-6-.944.567-1.96 1.527-2.987 2.71.336-.277.666-.517.987-.71z" fill="#968cd2"/><path d="m50.125 40.829c-7.766 5.143-16.5 7.966-19.588 8.865-.245.437-.471.848-.679 1.229 1.673-.448 12.134-3.406 21.174-9.497-.299-.206-.601-.405-.907-.597z" fill="#f0f0e6"/><path d="m48.457 43.049c.865-.517 1.728-1.052 2.576-1.624-.3-.205-.602-.404-.908-.596-.864.572-1.741 1.112-2.621 1.627.32.191.637.389.953.593z" fill="#fffffa"/><path d="m28.5 54c-.089 0-.178-.023-.257-.071-10.062-6.037-11.185-10.136-11.228-10.308-.038-.151-.003-.312.094-.434 4.073-5.091 10.056-6.139 10.309-6.181.183-.035.372.045.484.196s.129.353.045.521c-2.864 5.728.978 15.493 1.017 15.591.08.199.023.427-.14.566-.093.08-.208.12-.324.12zm-10.432-10.405c.367.849 2.168 4.127 9.481 8.733-.927-2.797-2.688-9.305-.903-14.112-1.771.49-5.689 1.907-8.578 5.379z" fill="#785ae6"/><path d="m28.5 54c-.144 0-.284-.062-.381-.176-.13-.153-.156-.368-.066-.548.289-.577 7.124-14.165 12.19-17.205.119-.07.263-.089.395-.052.29.082 7.154 2.073 12.175 6.09.121.097.19.244.188.398s-.076.3-.2.393c-.081.061-8.252 6.108-24.151 11.077-.05.015-.1.023-.15.023zm12.073-16.956c-4.007 2.603-9.362 12.357-11.075 15.614 12.727-4.114 20.171-8.826 22.16-10.178-4.328-3.252-9.937-5.083-11.085-5.436z" fill="#785ae6"/><path d="m21.5 13.5v14c0 3.866 3.134 7 7 7h5c3.314 0 6-2.686 6-6h2c1.657 0 3-1.343 3-3v-1c0-1.657-1.343-3-3-3h-2v-8z" fill="#ffc8d2"/><path d="m21.5 20.513s2-1.013 4-4.013c0 0 1 1 0 3s5 1 7-1 2-3 2-3 2.02 4.04 2.745 8.804c.15.984 1.5 1.162 1.899.251.699-1.595 1.356-3.715 1.356-6.055 0-2-1-4-1-4h-18z" fill="#ffb4be"/><path d="m21.5 18.513s2-1.013 4-4.013c0 0 1 1 0 3s5 1 7-1 2-3 2-3 2.02 4.04 2.745 8.804c.15.984 1.5 1.162 1.899.251.699-1.595 1.356-3.715 1.356-6.055 0-2-1-4-1-4h-18z" fill="#ffe885"/><g fill="#785ae6"><path d="m41.5 29h-2c-.276 0-.5-.224-.5-.5s.224-.5.5-.5h2c1.378 0 2.5-1.121 2.5-2.5v-1c0-1.379-1.122-2.5-2.5-2.5h-1.811c-.276 0-.5-.224-.5-.5s.224-.5.5-.5h1.811c1.93 0 3.5 1.57 3.5 3.5v1c0 1.93-1.57 3.5-3.5 3.5z"/><path d="m33.5 35h-5c-4.136 0-7.5-3.364-7.5-7.5v-10c0-.276.224-.5.5-.5s.5.224.5.5v10c0 3.584 2.916 6.5 6.5 6.5h5c.276 0 .5.224.5.5s-.224.5-.5.5z"/><path d="m31.5 26c-.276 0-.5-.224-.5-.5v-3c0-.276.224-.5.5-.5s.5.224.5.5v3c0 .276-.224.5-.5.5z"/><path d="m23.5 26c-.276 0-.5-.224-.5-.5v-3c0-.276.224-.5.5-.5s.5.224.5.5v3c0 .276-.224.5-.5.5z"/><path d="m26.5 28c-1.739 0-2.892-1.292-2.892-2.146 0-.242.088-.461.249-.615.112-.11.315-.239.643-.239.289 0 1.034-1.186 1.526-2.658.087-.261.371-.405.632-.316.262.088.403.371.316.633-.321.964-1.173 3.155-2.327 3.331.042.094.123.223.258.363.188.194.719.647 1.595.647.276 0 .5.224.5.5s-.224.5-.5.5z"/><path d="m28.5 31c-2.472 0-2.5-1.438-2.5-1.5 0-.276.224-.5.5-.5.268 0 .487.211.5.476.028.183.376.524 1.5.524 2.23 0 2.506-.565 2.508-.571 0-.276.22-.465.496-.465s.496.26.496.536c0 .352-.252 1.5-3.5 1.5zm-1.5-1.5h.01z"/><path d="m31.5 24.041c-.125 0-.25-.046-.346-.14-.199-.191-.206-.508-.014-.707l1-1.041c.192-.198.508-.207.707-.014.199.191.206.508.014.707l-1 1.041c-.099.102-.23.154-.361.154z"/><path d="m23.5 24.041c-.131 0-.262-.052-.36-.153l-1-1.041c-.191-.199-.185-.516.014-.707.198-.193.516-.185.707.014l1 1.041c.191.199.185.516-.014.707-.097.093-.222.139-.347.139z"/><path d="m34.5 22c-.209 0-.404-.133-.474-.342-.35-1.05-1.013-1.651-1.972-1.788-.738-.106-1.39.103-1.396.104-.265.088-.545-.056-.632-.316-.087-.262.054-.545.316-.633.035-.012.873-.287 1.854-.146.938.134 2.181.67 2.778 2.462.087.262-.054.545-.316.633-.053.018-.106.026-.158.026z"/><path d="m21.5 21.326c-.087 0-.175-.022-.256-.07-.237-.142-.314-.449-.173-.686 1.163-1.948 3.418-1.581 3.515-1.562.272.047.454.306.407.578-.047.271-.301.453-.577.407-.079-.015-1.683-.257-2.486 1.089-.095.157-.26.244-.43.244z"/><path d="m38.237 23.649c-.066 0-.134-.005-.202-.014-.668-.088-1.184-.593-1.285-1.256-.042-.272.146-.528.419-.569.272-.038.528.146.569.419.052.34.34.403.427.415.085.01.382.024.52-.291.873-1.988 1.315-3.957 1.315-5.853 0-1.854-.938-3.758-.947-3.776-.123-.247-.023-.548.224-.671s.548-.022.67.224c.043.085 1.053 2.129 1.053 4.223 0 2.035-.47 4.14-1.398 6.256-.242.552-.775.893-1.365.893z"/></g></svg>