<svg height="480pt" viewBox="0 0 480 480" width="480pt" xmlns="http://www.w3.org/2000/svg"><path d="m224 48v-48h32v48" fill="#8c6239"/><path d="m224 0h16v48h-16zm0 0" fill="#a67c52"/><path d="m152 48h176v32h-176zm0 0" fill="#754c24"/><path d="m152 48h152v32h-152zm0 0" fill="#8c6239"/><path d="m32 80h416v272h-416zm0 0" fill="#4fb99f"/><path d="m0 352h480v32h-480zm0 0" fill="#754c24"/><path d="m0 352h456v32h-456zm0 0" fill="#8c6239"/><path d="m88 304h48l16 32-16 144h-48l-16-144z" fill="#8d9299"/><path d="m112 304h-24l-16 32 16 144h24l16-144zm0 0" fill="#bcc3cc"/><path d="m136 304 12.6875-12.6875c7.242188-7.242188 11.3125-17.066406 11.3125-27.3125s-4.070312-20.070312-11.3125-27.3125l-17.375-17.375c-7.242188-7.242188-11.3125-17.066406-11.3125-27.3125v-40l-40.167969 45.902344c-10.207031 11.664062-15.832031 26.640625-15.832031 42.144531v6.394531c0 21.488282 8.535156 42.09375 23.726562 57.285156zm0 0" fill="#bf9945"/><path d="m124.6875 236.6875-17.375-17.375c-7.242188-7.242188-11.3125-17.066406-11.3125-27.3125v-12.566406l-16.167969 18.46875c-10.207031 11.664062-15.832031 26.640625-15.832031 42.144531v6.394531c0 21.488282 8.535156 42.09375 23.726562 57.285156l24.410157.136719 12.550781-12.550781c7.242188-7.242188 11.3125-17.066406 11.3125-27.3125s-4.070312-20.070312-11.3125-27.3125zm0 0" fill="#ffcc5c"/><path d="m208 112h272v192h-272zm0 0" fill="#a67c52"/><path d="m288 248c0 13.253906-10.746094 24-24 24s-24-10.746094-24-24 10.746094-24 24-24 24 10.746094 24 24zm0 0" fill="#bf9945"/><path d="m264 248c0-11.417969-5.371094-20.671875-12-20.671875s-12 9.253906-12 20.671875 5.371094 20.671875 12 20.671875 12-9.253906 12-20.671875zm0 0" fill="#ffcc5c"/><path d="m368 248c0 13.253906-10.746094 24-24 24s-24-10.746094-24-24 10.746094-24 24-24 24 10.746094 24 24zm0 0" fill="#55a4bc"/><path d="m344 248c0-11.417969-5.371094-20.671875-12-20.671875s-12 9.253906-12 20.671875 5.371094 20.671875 12 20.671875 12-9.253906 12-20.671875zm0 0" fill="#71dbfb"/><path d="m448 248c0 13.253906-10.746094 24-24 24s-24-10.746094-24-24 10.746094-24 24-24 24 10.746094 24 24zm0 0" fill="#b9846f"/><path d="m424 248c0-11.417969-5.371094-20.671875-12-20.671875s-12 9.253906-12 20.671875 5.371094 20.671875 12 20.671875 12-9.253906 12-20.671875zm0 0" fill="#f7b094"/><path d="m448 168c0 13.253906-10.746094 24-24 24s-24-10.746094-24-24 10.746094-24 24-24 24 10.746094 24 24zm0 0" fill="#b8555f"/><path d="m424 168c0-11.417969-5.371094-20.671875-12-20.671875s-12 9.253906-12 20.671875 5.371094 20.671875 12 20.671875 12-9.253906 12-20.671875zm0 0" fill="#f5717f"/><path d="m368 168c0 13.253906-10.746094 24-24 24s-24-10.746094-24-24 10.746094-24 24-24 24 10.746094 24 24zm0 0" fill="#69952f"/><path d="m344 168c0-11.417969-5.371094-20.671875-12-20.671875s-12 9.253906-12 20.671875 5.371094 20.671875 12 20.671875 12-9.253906 12-20.671875zm0 0" fill="#8cc63f"/><path d="m288 168c0 13.253906-10.746094 24-24 24s-24-10.746094-24-24 10.746094-24 24-24 24 10.746094 24 24zm0 0" fill="#8d9299"/><path d="m264 168c0-11.417969-5.371094-20.671875-12-20.671875s-12 9.253906-12 20.671875 5.371094 20.671875 12 20.671875 12-9.253906 12-20.671875zm0 0" fill="#bcc3cc"/><path d="m216 384h48v96h-48zm0 0" fill="#8c6239"/><path d="m216 384h24v96h-24zm0 0" fill="#a67c52"/><g fill="#6a6e73"><path d="m72 336 .886719 8h78.226562l.886719-8-4-8h-72zm0 0"/><path d="m76.449219 376h71.101562l1.785157-16h-74.671876zm0 0"/><path d="m104 264h16v40h-16zm0 0"/></g></svg>