<svg enable-background="new 0 0 36 36" height="512" viewBox="0 0 36 36" width="512" xmlns="http://www.w3.org/2000/svg"><g id="BG"><g><path d="m8.377 31.833c6.917 0 11.667 3.583 15 3.583s10.333-1.916 10.333-17.249-9.417-17.584-13.083-17.584c-17.167 0-24.5 31.25-12.25 31.25z" fill="#efefef"/></g></g><g id="Color"><g><g><path d="m3.555 26.967h1v2h-1z" fill="#a4afc1" transform="matrix(.707 -.707 .707 .707 -18.588 11.059)"/></g><g><path d="m7.621 31.033h1v2h-1z" fill="#a4afc1" transform="matrix(.707 -.707 .707 .707 -20.272 15.125)"/></g><g><path d="m2.878 31.533h2v1h-2z" fill="#a4afc1" transform="matrix(.707 -.707 .707 .707 -21.515 12.125)"/></g></g><g><path d="m6 6.5c-.827 0-1.5-.673-1.5-1.5s.673-1.5 1.5-1.5 1.5.673 1.5 1.5-.673 1.5-1.5 1.5zm0-2c-.276 0-.5.224-.5.5s.224.5.5.5.5-.224.5-.5-.224-.5-.5-.5z" fill="#a4afc1"/></g><g><path d="m18 6.75v7h-11.25v-5c0-1.1.9-2 2-2z" fill="#f3f3f1"/></g><g><path d="m29.25 8.75v5h-11.25v-7h9.25c1.1 0 2 .9 2 2z" fill="#2fdf84"/></g><g><path d="m29.25 13.75v13.5c0 1.1-.9 2-2 2h-18.5c-1.1 0-2-.9-2-2v-13.5z" fill="#f3f3f1"/></g><g><path d="m11 6.75h-2.25c-1.1 0-2 .9-2 2v5h2.25v-5c0-1.1.9-2 2-2z" fill="#d5dbe1"/></g><g><path d="m18 6.75h2.25v7h-2.25z" fill="#00b871"/></g><g><path d="m9 27.25v-13.5h-2.25v13.5c0 1.1.9 2 2 2h2.25c-1.1 0-2-.9-2-2z" fill="#d5dbe1"/></g></g><g id="Layer_2"><g><path d="m6.75 13h20v1.5h-20z"/></g><g><path d="m17.25 6.75h1.5v7h-1.5z"/></g><g><path d="m28.25 30h-20.5c-.965 0-1.75-.785-1.75-1.75v-20.5c0-.965.785-1.75 1.75-1.75h20.5c.965 0 1.75.785 1.75 1.75v20.5c0 .965-.785 1.75-1.75 1.75zm-20.5-22.5c-.138 0-.25.112-.25.25v20.5c0 .138.112.25.25.25h20.5c.138 0 .25-.112.25-.25v-20.5c0-.138-.112-.25-.25-.25z"/></g></g></svg>